<svg width="770" height="759" viewBox="0 0 770 759" fill="none" xmlns="http://www.w3.org/2000/svg">
<path d="M640.994 234.9C661.327 234.18 677.225 217.123 676.505 196.802C675.784 176.482 658.717 160.593 638.385 161.313C618.052 162.033 602.154 179.09 602.874 199.411C603.595 219.731 620.662 235.62 640.994 234.9Z" fill="#7E40D6"/>
<path d="M582.138 271.337C577.932 259.778 571.105 249.35 562.193 240.87C553.281 232.391 542.526 226.091 530.772 222.466C505.862 215.007 478.291 220.192 453.812 211.422C426.002 201.506 407.619 175.847 386.749 154.979C365.878 134.112 335.317 116.32 308.049 127.545C284.999 137.017 273.261 163.934 250.801 174.716C232.143 183.599 210.318 179.714 189.669 180.317C155.411 181.333 120.988 196.671 100.458 224.098C79.9277 251.525 75.3305 291.17 92.4451 320.882C111.056 353.165 150.841 370.158 165.603 404.368C175.527 427.405 172.097 453.841 177.204 478.388C185.808 519.691 221.018 554.168 262.496 561.898C283.697 565.855 305.846 563.348 326.776 568.554C380.967 581.954 413.351 642.301 467.222 657.07C510.059 668.854 559.593 644.587 576.655 603.57C589.116 573.547 585.196 538.418 598.992 509.004C610.535 484.265 632.982 466.742 650.421 445.712C667.86 424.682 680.558 394.923 668.299 370.525C660.205 354.429 643.433 345.046 629.349 333.818C607.261 316.206 591.245 298.119 582.174 271.375" fill="#ECECEC"/>
<path d="M741.235 435.922L741.778 436.905C742.384 438.009 743.3 438.912 744.412 439.504L745.396 440.046L744.412 440.577C743.297 441.171 742.381 442.078 741.778 443.188L741.235 444.16L740.692 443.188C740.083 442.083 739.168 441.177 738.058 440.577L737.074 440.046L738.058 439.504C739.165 438.905 740.079 438.004 740.692 436.905L741.235 435.922Z" fill="#ECECEC"/>
<path d="M113.443 483.891L113.974 484.862C114.584 485.967 115.498 486.873 116.609 487.473L117.604 488.004L116.609 488.546C115.501 489.145 114.587 490.046 113.974 491.145L113.443 492.128L112.9 491.145C112.287 490.046 111.373 489.145 110.265 488.546L109.271 488.004L110.265 487.473C111.376 486.873 112.29 485.967 112.9 484.862L113.443 483.891Z" fill="#ECECEC"/>
<path d="M762.796 546.492L763.712 548.187C764.753 550.097 766.323 551.667 768.235 552.707L769.931 553.634L768.235 554.549C766.323 555.589 764.753 557.159 763.712 559.069L762.796 560.764L761.869 559.069C760.828 557.159 759.258 555.589 757.346 554.549L755.65 553.634L757.346 552.707C759.258 551.667 760.828 550.097 761.869 548.187L762.796 546.492Z" fill="#ECECEC"/>
<path d="M90.1062 592.457L91.0333 594.152C92.0742 596.062 93.6446 597.632 95.556 598.672L97.252 599.599L95.556 600.525C93.6446 601.565 92.0742 603.135 91.0333 605.045L90.1062 606.729L89.1903 605.045C88.1495 603.135 86.5791 601.565 84.6677 600.525L82.9717 599.599L84.6677 598.672C86.5791 597.632 88.1495 596.062 89.1903 594.152L90.1062 592.457Z" fill="#ECECEC"/>
<path d="M348.847 206.656L349.774 208.351C350.815 210.262 352.386 211.831 354.297 212.871L355.993 213.798L354.297 214.724C352.386 215.765 350.815 217.334 349.774 219.244L348.847 220.928L347.92 219.244C346.879 217.334 345.309 215.765 343.397 214.724L341.735 213.753L343.42 212.826C345.331 211.786 346.902 210.216 347.943 208.306L348.847 206.656Z" fill="#ECECEC"/>
<path d="M591.014 358.168L591.93 359.863C592.971 361.773 594.541 363.343 596.452 364.383L598.148 365.31L596.452 366.225C594.541 367.265 592.971 368.835 591.93 370.745L591.014 372.44L590.087 370.745C589.046 368.835 587.476 367.265 585.564 366.225L583.868 365.31L585.564 364.383C587.476 363.343 589.046 361.773 590.087 359.863L591.014 358.168Z" fill="#FAFAFA"/>
<path d="M292.333 367.535L292.875 368.518C293.494 369.616 294.406 370.52 295.51 371.129L296.494 371.66L295.51 372.202C294.403 372.801 293.489 373.702 292.875 374.801L292.333 375.784L291.79 374.801C291.184 373.7 290.274 372.798 289.167 372.202L288.172 371.66L289.167 371.129C290.272 370.525 291.182 369.62 291.79 368.518L292.333 367.535Z" fill="#FAFAFA"/>
<path d="M377.257 525.137L377.8 526.12C378.406 527.221 379.317 528.123 380.423 528.719L381.418 529.261L380.423 529.792C379.322 530.392 378.418 531.299 377.823 532.403L377.28 533.374L376.737 532.403C376.128 531.298 375.213 530.392 374.103 529.792L373.119 529.261L374.103 528.719C375.21 528.12 376.124 527.219 376.737 526.12L377.257 525.137Z" fill="#ECECEC"/>
<path d="M208.652 623.75L209.195 624.733C209.808 625.832 210.722 626.734 211.829 627.332L212.824 627.875L211.829 628.406C210.719 629.005 209.804 629.911 209.195 631.016L208.652 631.988L208.109 631.016C207.508 629.909 206.596 629.002 205.486 628.406L204.491 627.875L205.486 627.332C206.593 626.736 207.504 625.834 208.109 624.733L208.652 623.75Z" fill="#ECECEC"/>
<path d="M572.58 186.746L573.122 187.729C573.725 188.827 574.627 189.732 575.723 190.339L576.707 190.871L575.723 191.402C574.627 192.009 573.725 192.914 573.122 194.012L572.58 194.995L572.048 194.012C571.454 192.916 570.56 192.01 569.47 191.402L568.498 190.871L569.47 190.339C570.557 189.737 571.45 188.84 572.048 187.752L572.58 186.746Z" fill="#CFFFEB"/>
<path d="M422.756 568.652L423.299 569.635C423.899 570.733 424.801 571.635 425.899 572.234L426.883 572.777L425.899 573.308C424.798 573.909 423.895 574.816 423.299 575.918L422.756 576.89L422.224 575.918C421.627 574.813 420.719 573.905 419.613 573.308L418.629 572.777L419.613 572.234C420.716 571.638 421.623 570.735 422.224 569.635L422.756 568.652Z" fill="#CFFFEB"/>
<path d="M109.798 249.211L110.341 250.194C110.945 251.295 111.851 252.201 112.953 252.804L113.925 253.335L112.953 253.867C111.851 254.47 110.945 255.376 110.341 256.477L109.798 257.46L109.267 256.477C108.663 255.376 107.757 254.47 106.655 253.867L105.683 253.335L106.655 252.804C107.757 252.201 108.663 251.295 109.267 250.194L109.798 249.211Z" fill="#CFFFEB"/>
<path d="M624.071 599.332L624.613 600.315C625.216 601.413 626.118 602.318 627.214 602.925L628.198 603.457L627.214 603.999C626.116 604.599 625.213 605.501 624.613 606.598L624.071 607.581L623.539 606.598C622.938 605.498 622.031 604.595 620.927 603.999L619.955 603.457L620.927 602.925C622.029 602.322 622.935 601.416 623.539 600.315L624.071 599.332Z" fill="#CFFFEB"/>
<path d="M567.209 495.012L567.74 495.995C568.348 497.09 569.254 497.991 570.352 498.594L571.336 499.136L570.352 499.667C569.251 500.271 568.344 501.177 567.74 502.278L567.209 503.261L566.666 502.278C566.069 501.175 565.166 500.269 564.066 499.667L563.082 499.136L564.066 498.594C565.164 497.994 566.066 497.092 566.666 495.995L567.209 495.012Z" fill="#CFFFEB"/>
<path d="M204.491 432.555L205.034 433.538C205.637 434.636 206.538 435.541 207.634 436.148L208.618 436.679L207.634 437.21C206.538 437.818 205.637 438.723 205.034 439.821L204.491 440.804L203.96 439.821C203.347 438.726 202.443 437.822 201.348 437.21L200.364 436.679L201.348 436.148C202.443 435.536 203.347 434.633 203.96 433.538L204.491 432.555Z" fill="#CFFFEB"/>
<path d="M686.325 406.383L686.597 406.869C686.897 407.417 687.348 407.868 687.897 408.168L688.394 408.439L687.897 408.711C687.348 409.01 686.897 409.461 686.597 410.01L686.325 410.507L686.065 410.01C685.764 409.458 685.308 409.007 684.754 408.711L684.268 408.439L684.754 408.168C685.308 407.872 685.764 407.421 686.065 406.869L686.325 406.383Z" fill="#CFFFEB"/>
<path d="M303.436 523.078L303.685 523.575C303.962 524.137 304.399 524.604 304.94 524.92L305.414 525.214L304.917 525.462C304.357 525.743 303.89 526.178 303.571 526.717L303.277 527.191L303.029 526.694C302.752 526.129 302.316 525.658 301.774 525.338L301.299 525.056L301.796 524.807C302.359 524.527 302.83 524.091 303.153 523.553L303.436 523.078Z" fill="#CFFFEB"/>
<path d="M644.434 282.797L644.705 283.283C644.999 283.836 645.452 284.289 646.005 284.582L646.492 284.853L646.005 285.125C645.452 285.418 644.999 285.871 644.705 286.424L644.434 286.91L644.162 286.424C643.869 285.871 643.416 285.418 642.862 285.125L642.376 284.853L642.862 284.582C643.416 284.289 643.869 283.836 644.162 283.283L644.434 282.797Z" fill="#CFFFEB"/>
<path d="M312.81 296.582L313.081 297.079C313.387 297.624 313.837 298.073 314.381 298.379L314.879 298.65L314.381 298.91C313.835 299.218 313.385 299.672 313.081 300.221L312.81 300.752L312.55 300.266C312.246 299.713 311.791 299.259 311.238 298.955L310.752 298.695L311.238 298.424C311.787 298.12 312.241 297.67 312.55 297.124L312.81 296.582Z" fill="#CFFFEB"/>
<path d="M167.938 206.023L168.198 206.521C168.506 207.067 168.96 207.517 169.509 207.82L169.995 208.091L169.509 208.351C168.956 208.655 168.502 209.11 168.198 209.662L167.938 210.148L167.666 209.662C167.362 209.113 166.912 208.66 166.366 208.351L165.823 208.091L166.321 207.82C166.866 207.515 167.316 207.065 167.621 206.521L167.938 206.023Z" fill="#CFFFEB"/>
<path d="M448.082 242.105L448.998 243.789C450.039 245.699 451.609 247.269 453.521 248.309L455.217 249.236L453.521 250.162C451.609 251.203 450.039 252.772 448.998 254.682L448.082 256.377L447.155 254.682C446.114 252.772 444.544 251.203 442.633 250.162L440.937 249.236L442.633 248.309C444.544 247.269 446.114 245.699 447.155 243.789L448.082 242.105Z" fill="#CFFFEB"/>
<path d="M730.026 506.242L730.953 507.937C731.994 509.847 733.564 511.417 735.475 512.457L737.16 513.384L735.475 514.31C733.564 515.351 731.994 516.92 730.953 518.83L730.026 520.514L729.121 518.842C728.08 516.931 726.51 515.362 724.598 514.322L722.902 513.395L724.598 512.468C726.51 511.428 728.08 509.859 729.121 507.948L730.026 506.242Z" fill="#CFFFEB"/>
<path d="M157.173 569.781L158.089 571.476C159.13 573.387 160.7 574.956 162.612 575.996L164.308 576.912L162.612 577.838C160.7 578.878 159.13 580.448 158.089 582.358L157.173 584.053L156.246 582.358C155.205 580.448 153.635 578.878 151.723 577.838L150.027 576.912L151.723 575.996C153.635 574.956 155.205 573.387 156.246 571.476L157.173 569.781Z" fill="#CFFFEB"/>
<path opacity="0.4" d="M713.551 295.53C712.484 296.893 711.037 297.909 709.393 298.449C707.748 298.99 705.98 299.031 704.312 298.567C702.644 298.103 701.151 297.155 700.023 295.843C698.894 294.531 698.18 292.914 697.971 291.196C697.762 289.478 698.068 287.738 698.849 286.193C699.631 284.649 700.853 283.372 702.361 282.522C703.869 281.672 705.595 281.289 707.321 281.42C709.048 281.551 710.696 282.191 712.059 283.258C713.884 284.689 715.066 286.784 715.346 289.085C715.626 291.386 714.98 293.704 713.551 295.53V295.53Z" fill="#CAD2EF"/>
<path opacity="0.4" d="M719.363 268.014C718.742 268.806 717.901 269.396 716.945 269.709C715.989 270.023 714.961 270.046 713.992 269.776C713.023 269.507 712.156 268.956 711.5 268.193C710.844 267.431 710.429 266.491 710.307 265.493C710.185 264.495 710.362 263.483 710.816 262.585C711.27 261.688 711.979 260.945 712.855 260.45C713.731 259.956 714.734 259.732 715.738 259.807C716.741 259.882 717.699 260.253 718.492 260.873C719.019 261.284 719.459 261.795 719.788 262.377C720.116 262.959 720.327 263.6 720.408 264.263C720.489 264.926 720.438 265.599 720.259 266.243C720.079 266.886 719.775 267.488 719.363 268.014V268.014Z" fill="#CAD2EF"/>
<path d="M293.456 652.416C306.869 651.838 317.274 640.502 316.695 627.096C316.117 613.691 304.774 603.293 291.361 603.871C277.948 604.449 267.543 615.785 268.122 629.19C268.7 642.596 280.043 652.994 293.456 652.416Z" fill="#CFFFEB"/>
<path opacity="0.2" d="M278.978 624.049C278.198 624.136 277.409 623.989 276.712 623.628C276.014 623.267 275.44 622.707 275.061 622.02C274.683 621.332 274.517 620.548 274.584 619.766C274.652 618.984 274.95 618.24 275.441 617.627C275.931 617.015 276.593 616.562 277.342 616.325C278.091 616.089 278.893 616.079 279.647 616.299C280.401 616.518 281.073 616.956 281.578 617.557C282.083 618.158 282.398 618.895 282.483 619.676C282.597 620.72 282.293 621.767 281.635 622.587C280.978 623.406 280.023 623.932 278.978 624.049V624.049Z" fill="white"/>
<path opacity="0.2" d="M287.096 614.961C286.655 614.999 286.211 614.907 285.822 614.696C285.432 614.485 285.113 614.164 284.905 613.773C284.696 613.382 284.607 612.939 284.649 612.498C284.69 612.057 284.86 611.638 285.138 611.293C285.416 610.948 285.789 610.692 286.211 610.557C286.633 610.422 287.086 610.414 287.512 610.534C287.939 610.654 288.321 610.896 288.611 611.231C288.9 611.566 289.085 611.979 289.143 612.418C289.182 612.721 289.159 613.028 289.077 613.321C288.994 613.615 288.853 613.888 288.662 614.126C288.471 614.363 288.233 614.56 287.964 614.703C287.695 614.847 287.4 614.934 287.096 614.961Z" fill="white"/>
<path opacity="0.2" d="M294.536 617.088C294.517 616.922 294.548 616.753 294.624 616.604C294.701 616.455 294.82 616.332 294.967 616.251C295.114 616.17 295.281 616.134 295.448 616.147C295.615 616.161 295.775 616.224 295.906 616.329C296.037 616.433 296.135 616.574 296.186 616.734C296.237 616.893 296.24 617.064 296.193 617.226C296.147 617.387 296.054 617.531 295.926 617.639C295.798 617.747 295.641 617.815 295.474 617.834C295.363 617.848 295.251 617.84 295.143 617.81C295.036 617.78 294.935 617.729 294.848 617.659C294.76 617.59 294.687 617.503 294.634 617.405C294.58 617.307 294.547 617.199 294.536 617.088Z" fill="white"/>
<path d="M712.689 264.163C718.887 257.686 718.657 247.415 712.177 241.221C705.696 235.027 695.418 235.256 689.221 241.733C683.023 248.21 683.253 258.482 689.733 264.676C696.214 270.87 706.492 270.64 712.689 264.163Z" fill="#CFFFEB"/>
<path d="M323.689 152.159C329.887 145.682 329.657 135.411 323.177 129.217C316.696 123.023 306.418 123.253 300.221 129.73C294.023 136.206 294.253 146.478 300.733 152.672C307.214 158.866 317.492 158.636 323.689 152.159Z" fill="#CFFFEB"/>
<path d="M556.344 325.611C556.357 325.089 556.525 324.582 556.826 324.155C557.128 323.728 557.549 323.4 558.037 323.212C558.524 323.024 559.057 322.985 559.567 323.099C560.077 323.213 560.542 323.476 560.903 323.854C561.264 324.232 561.504 324.708 561.595 325.223C561.685 325.737 561.62 326.267 561.41 326.745C561.199 327.223 560.851 327.628 560.41 327.909C559.97 328.19 559.455 328.334 558.933 328.323C558.584 328.316 558.241 328.24 557.922 328.099C557.603 327.959 557.315 327.757 557.074 327.505C556.834 327.253 556.645 326.956 556.52 326.631C556.395 326.306 556.335 325.959 556.344 325.611V325.611Z" fill="white"/>
<path d="M561.635 331.794C561.64 331.487 561.735 331.189 561.91 330.936C562.085 330.684 562.332 330.489 562.618 330.377C562.904 330.264 563.217 330.24 563.517 330.306C563.817 330.372 564.091 330.525 564.303 330.747C564.515 330.969 564.657 331.249 564.71 331.552C564.763 331.854 564.724 332.166 564.599 332.446C564.474 332.727 564.269 332.964 564.009 333.128C563.749 333.291 563.446 333.374 563.139 333.365C562.732 333.353 562.346 333.182 562.065 332.888C561.783 332.594 561.629 332.201 561.635 331.794V331.794Z" fill="white"/>
<path d="M559.578 336.516C559.708 336.542 559.826 336.612 559.91 336.715C559.995 336.818 560.041 336.947 560.041 337.081C560.041 337.214 559.995 337.343 559.91 337.446C559.826 337.549 559.708 337.619 559.578 337.646C559.427 337.64 559.284 337.575 559.18 337.465C559.077 337.355 559.02 337.209 559.024 337.058C559.034 336.916 559.096 336.782 559.198 336.683C559.3 336.583 559.435 336.523 559.578 336.516Z" fill="white"/>
<path d="M15.03 412.338C12.8687 422.387 111 507.044 388.677 507.044C623 507.044 727 382.5 727 382.5L15.03 412.338Z" fill="#7E40D6"/>
<path d="M374.287 440.857C571.865 431.436 731.016 402.477 729.762 376.177C728.508 349.876 567.323 336.192 369.745 345.613C172.167 355.034 13.0157 383.993 14.2698 410.294C15.5239 436.595 176.709 450.278 374.287 440.857Z" fill="#CAD2EF"/>
<path d="M207.137 380.048C207.137 380.048 196.708 218.234 357.149 197.725C517.59 177.216 531.884 347.225 531.884 347.225C531.884 347.225 428.035 426.374 207.137 380.048Z" fill="white"/>
<path d="M440 347.213C460.413 348.933 448.5 374.164 441 384L449.5 382.033L454.25 380.803L459 379.574C463.536 353.609 474.676 351.44 481 352.372C478.732 351.512 478.31 348.574 478.383 347.213C466.519 352.887 473.44 335.105 478.383 325.505C476.464 325.505 474.676 324.502 474.021 324C463.902 341.883 460.209 331.451 459.628 324C457.534 325.719 454.248 325.719 452.867 325.505C461.067 345.795 450.759 343.702 444.58 340.12C443.882 343.043 441.236 346.067 440 347.213Z" fill="#B5B1FD"/>
<path d="M702.773 373.621C702.497 374.062 702.168 374.468 701.795 374.832C700.766 375.911 699.653 376.907 698.467 377.811C694.001 380.998 689.111 383.544 683.94 385.377C650.301 398.421 614.956 406.544 578.997 409.495C572.013 410.03 566.519 410.286 562.701 410.379H558.255C557.736 410.415 557.215 410.415 556.695 410.379C557.206 410.253 557.729 410.191 558.255 410.193L562.678 409.89C566.542 409.634 572.106 409.262 578.974 408.61C614.801 405.208 650.023 397.099 683.731 384.493C688.876 382.748 693.774 380.346 698.304 377.346C699.857 376.182 701.349 374.939 702.773 373.621Z" fill="white"/>
<path d="M333.995 506C333.099 505.598 332.255 505.096 331.481 504.503C329.256 503.038 327.138 501.425 325.144 499.678C322.141 497.114 319.352 494.328 316.801 491.344C313.675 487.691 310.875 483.789 308.431 479.68C306.029 475.548 303.98 471.233 302.308 466.778C300.973 463.134 299.918 459.399 299.152 455.605C298.624 453.05 298.266 450.464 298.083 447.864C297.972 446.912 297.972 445.952 298.083 445C298.35 445 298.644 449.025 300.142 455.321C301.028 459.035 302.163 462.69 303.538 466.262C305.269 470.619 307.315 474.852 309.661 478.932C312.085 482.963 314.811 486.818 317.817 490.466C320.295 493.439 322.975 496.249 325.839 498.878C330.706 503.42 334.155 505.768 333.995 506Z" fill="white"/>
<path d="M238.216 430.852C237.565 430.981 236.903 431.048 236.239 431.05L230.536 431.363C225.702 431.634 218.495 431.846 209.569 431.958C191.876 432.216 167.377 431.752 140.416 429.611C113.456 427.47 89.1962 423.933 71.7528 420.859C63.0311 419.322 55.9906 417.95 51.1711 416.887L45.6073 415.633C44.9444 415.545 44.2907 415.397 43.6543 415.192C44.3168 415.227 44.9758 415.312 45.6255 415.446L51.2457 416.45C56.101 417.354 63.1672 418.613 71.9144 420.037C89.3812 422.901 113.614 426.24 140.556 428.354C167.499 430.467 191.912 431.103 209.605 431.059C218.46 431.051 225.613 430.97 230.558 430.843L236.26 430.745C236.914 430.729 237.568 430.764 238.216 430.852V430.852Z" fill="white"/>
<path d="M453.499 327.508C457.499 327.908 459.666 326.841 459.999 326.008C460.399 330.808 462.499 333.341 463.499 334.008C459.099 334.808 454.832 329.841 453.499 327.508Z" fill="#7E40D6"/>
<path d="M443.999 340.008C445.999 341.341 452.199 343.908 454.999 341.508C453.499 345.508 447.999 350.408 443.999 340.008Z" fill="#7E40D6"/>
<path d="M494.084 576.226L492.641 573.578C491.037 570.62 488.628 568.176 485.693 566.529L483.058 565.088L485.708 563.676C488.661 562.06 491.096 559.643 492.731 556.702L494.203 554.069L495.616 556.717C497.198 559.671 499.586 562.115 502.503 563.766L505.107 565.206L502.488 566.619C499.562 568.222 497.148 570.619 495.526 573.533L494.084 576.226Z" fill="#7E40D6"/>
<path d="M581.375 584.134L580.683 582.793C579.861 581.321 578.647 580.105 577.175 579.28L575.872 578.544L577.183 577.852C578.674 577.044 579.903 575.828 580.728 574.347L581.434 573.045L582.157 574.355C582.966 575.834 584.169 577.061 585.634 577.898L587.089 578.604L585.748 579.326C584.279 580.139 583.062 581.342 582.233 582.801L581.375 584.134Z" fill="#7E40D6"/>
<path d="M414 389C410 389.5 404.313 381.642 400.999 378.008C376.41 397.86 356.404 394.796 340.499 377.008L327.5 394.5C363.5 395.5 398 392 414 389Z" fill="#7E40D6"/>
<path d="M63.6347 483.599C52.7901 483.925 44.2633 492.976 44.5896 503.814C44.9158 514.652 53.9716 523.174 64.8162 522.848C75.6609 522.522 84.1877 513.472 83.8614 502.633C83.5351 491.795 74.4793 483.273 63.6347 483.599Z" fill="#B5B1FD"/>
<path d="M53.999 204.525L65.0429 206.543L67.517 218.008L69.9552 206.543L80.999 204.525L70.0269 201.871L67.517 191.008L65.007 201.871L53.999 204.525Z" fill="#7E40D6"/>
<path d="M30.999 330.508L45.7046 333.268L48.999 349.008L52.2935 333.268L66.999 330.508L52.3413 326.876L48.999 312.008L45.6569 326.876L30.999 330.508Z" fill="#CFFFEB"/>
<path d="M230.999 107.508L245.705 110.268L248.999 126.008L252.293 110.268L266.999 107.508L252.341 103.876L248.999 89.0078L245.657 103.876L230.999 107.508Z" fill="#CFFFEB"/>
<path d="M219.499 210.008C220.734 210.125 221.878 210.65 222.708 211.481C223.539 212.312 223.999 213.39 223.999 214.508C223.999 215.625 223.539 216.704 222.708 217.534C221.878 218.365 220.734 218.89 219.499 219.008C218.264 218.89 217.12 218.365 216.29 217.534C215.459 216.704 214.999 215.625 214.999 214.508C214.999 213.39 215.459 212.312 216.29 211.481C217.12 210.65 218.264 210.125 219.499 210.008V210.008Z" fill="#7E40D6"/>
<path d="M139.999 330.022L148.589 331.666L150.485 341.008L152.409 331.666L160.999 330.022L152.465 327.86L150.485 319.008L148.533 327.86L139.999 330.022Z" fill="#7E40D6"/>
<path d="M395.499 370.508L400.999 378.008C372.999 402.008 350.666 390.008 340.499 377.008L344.499 370.508C364.499 388.508 386.999 378.674 395.499 370.508Z" fill="#CFFFEB"/>
<path d="M435.279 277.006C436.806 313.375 407.382 379.907 371.561 381.411C335.74 382.915 302.924 318.996 301.397 282.627C299.87 246.258 328.945 221.057 364.766 219.553C400.587 218.05 433.752 240.637 435.279 277.006Z" fill="#B5B1FD"/>
<path d="M410.865 270.632C388.399 261.52 372.695 288.784 372.665 305.789C372.647 315.917 373.813 320.459 375.286 321.862C414.115 329.264 434.897 280.38 410.865 270.632Z" fill="#7E40D6"/>
<path d="M325.652 274.818C347.102 263.52 365.436 289.09 367.154 306.008C368.178 316.084 367.469 320.72 366.142 322.262C328.24 333.483 302.707 286.904 325.652 274.818Z" fill="#7E40D6"/>
<path d="M386.19 350.45C383.252 353.487 373.461 358.178 357.805 352.641C362.315 347.829 374.305 340.654 386.19 350.45Z" fill="#7E40D6"/>
<circle cx="438.499" cy="341.508" r="6.5" fill="#B5B1FD"/>
<circle cx="455.499" cy="321.508" r="6.5" fill="#B5B1FD"/>
<circle cx="478.499" cy="323.508" r="6.5" fill="#B5B1FD"/>
<circle cx="484.499" cy="347.508" r="6.5" fill="#B5B1FD"/>
<circle cx="331.999" cy="288.008" r="5" fill="white"/>
<circle cx="405.999" cy="284.008" r="5" fill="white"/>
<circle cx="338.499" cy="296.508" r="2.5" fill="white"/>
<circle cx="397.499" cy="295.508" r="2.5" fill="white"/>
<path d="M322.476 298.422C320.263 294.794 318.15 285.416 327.399 276.927C324.71 280.642 319.962 290.142 322.476 298.422Z" fill="white"/>
<path d="M388.511 290.617C388.004 286.398 389.974 276.99 401.912 273.106C397.924 275.369 389.661 282.041 388.511 290.617Z" fill="white"/>
<path d="M313.511 262.617C313.004 258.398 314.974 248.99 326.912 245.106C322.924 247.369 314.661 254.041 313.511 262.617Z" fill="white"/>
<path d="M439.308 336.657C437.259 336.834 433.248 339.735 434.589 344.001C435.156 342.573 436.953 338.709 439.308 336.657Z" fill="white"/>
<path d="M456.484 316.347C454.436 316.167 449.983 318.328 450.563 322.763C451.369 321.454 453.809 317.96 456.484 316.347Z" fill="white"/>
<path d="M481.646 319.469C479.738 318.701 474.849 319.473 474.114 323.884C475.266 322.867 478.617 320.234 481.646 319.469Z" fill="white"/>
<path d="M487.277 342.866C485.273 342.406 480.565 343.935 480.531 348.407C481.509 347.222 484.405 344.096 487.277 342.866Z" fill="white"/>
</svg>
