<svg width="88" height="88" viewBox="0 0 407 524" fill="none" xmlns="http://www.w3.org/2000/svg">
<path d="M7.63623 457.265C21.9901 428.72 43.3739 402.925 62.2807 377.335C96.8939 330.486 132.91 284.762 165.784 236.642C219.18 158.482 269.297 74.811 336.377 7.31306" stroke="#1E1E1E" stroke-width="8" stroke-linecap="round" stroke-linejoin="round"/>
<path d="M9.57105 455.404C8.88135 450.738 10.8425 462.473 12.0166 464.252C14.2215 467.592 18.3549 468.968 21.5092 471.199C25.7461 474.196 30.4105 476.988 34.4179 480.264C38.0311 483.217 40.1105 487.538 43.6669 490.529C46.9662 493.304 50.5831 495.605 53.8458 498.47C56.9892 501.23 61.1612 505.967 65.3477 507.035" stroke="#1E1E1E" stroke-width="8" stroke-linecap="round" stroke-linejoin="round"/>
<path d="M4.13306 458.056C4.13306 462.625 13.5382 465.296 16.5113 468.002C24.9345 475.668 29.4178 487.236 40.1911 492.591C45.4871 495.224 51.1981 496.666 55.8671 500.476C60.495 504.253 63.0598 508.54 69.1193 510.119C72.3523 510.962 76.5651 510.831 79.2676 512.962C81.5016 514.723 84.0883 515.415 86.8249 516.046" stroke="#1E1E1E" stroke-width="8" stroke-linecap="round" stroke-linejoin="round"/>
<path d="M87.7865 518.814C81.0181 523.268 94.5561 506.576 95.088 505.852C103.116 494.937 109.72 483.02 116.488 471.307C128.583 450.373 141.698 429.989 154.36 409.391C191.059 349.694 229.797 290.967 268.615 232.631C292.149 197.263 317.43 163.087 343.517 129.567C361.943 105.891 379.713 81.6999 398.553 58.3512" stroke="#1E1E1E" stroke-width="8" stroke-linecap="round" stroke-linejoin="round"/>
<path d="M83.6193 354.333C83.1857 348.361 100.388 355.919 102.984 357.038C122.788 365.579 143.904 373.649 160.942 387.133" stroke="#1E1E1E" stroke-width="8" stroke-linecap="round" stroke-linejoin="round"/>
<path d="M144.891 347.875C145.135 344.04 146.411 341.226 148.719 338.147C154.433 330.526 160.384 323.143 165.863 315.336C186.2 286.356 205.729 256.809 226.168 227.895C241.826 205.746 257.371 183.567 272.812 161.27C273.531 160.232 277.817 154.496 274.147 158.511C267.506 165.777 261.918 174.171 256.096 182.085C235.705 209.799 214.546 237.237 195.835 266.126C186.167 281.053 176.984 296.301 168.059 311.683C161.523 322.947 155.907 334.87 148.707 345.733C144.613 351.909 145.358 348.336 147.708 343.691C155.343 328.601 164.966 314.348 174.69 300.558C203.092 260.28 236.003 223.835 269.908 188.17" stroke="#1E1E1E" stroke-width="16" stroke-linecap="round" stroke-linejoin="round"/>
<path d="M144.968 323.025C146.818 321.27 148.859 319.811 150.553 317.875C156.621 310.938 161.124 302.589 165.779 294.694C184.981 262.124 206.05 230.63 230.358 201.613C240.183 189.885 250.516 178.605 260.912 167.387C265.541 162.391 270.53 157.437 274.535 151.902C280.525 143.624 258.276 164.419 251.249 171.837C225.709 198.797 204.037 229.202 183.931 260.345C173.979 275.76 164.361 291.459 155.556 307.562C153.003 312.231 150.133 317.106 148.581 322.243C147.985 324.218 147.705 326.206 148.927 327.998C150.893 330.881 153.76 330.715 155.94 328.22C158.672 325.093 160.662 321.166 162.629 317.557C166.295 310.831 169.736 303.985 173.358 297.235C191.743 262.964 213.446 231.321 238.722 201.787" stroke="#1E1E1E" stroke-width="16" stroke-linecap="round" stroke-linejoin="round"/>
<path d="M131.677 340.009C133.619 338.894 135.39 336.596 136.778 334.957C144.396 325.96 150.155 315.445 156.206 305.385C167.568 286.498 179.075 267.686 191.82 249.689C206.85 228.467 223.446 208.383 240.901 189.12C250.875 178.113 261.256 167.511 271.743 156.995C274.131 154.599 281.408 147.635 278.587 149.502C272.703 153.394 267.602 159.22 262.581 164.09C245.654 180.503 229.659 197.879 214.609 216.029C184.698 252.101 159.712 291.512 139.157 333.592C134.724 342.666 130.502 351.84 126.563 361.139C123.386 368.638 132.711 346.055 135.972 338.593C156.668 291.227 183.53 246.154 217.478 207.063C229.508 193.211 242.279 179.964 255.576 167.324C261.144 162.032 266.747 156.638 273.122 152.316" stroke="#1E1E1E" stroke-width="16" stroke-linecap="round" stroke-linejoin="round"/>
<path d="M119.457 336.786C123.35 330.261 129.984 325.121 134.913 319.372C151.28 300.282 164.987 279.166 179.993 259.033C206.719 223.176 238.362 191.933 270.695 161.198" stroke="#1E1E1E" stroke-width="16" stroke-linecap="round" stroke-linejoin="round"/>
<path d="M137.35 322.262C139.925 316.232 143.412 310.633 146.698 304.973C154.694 291.197 163.069 277.666 171.907 264.411C185.753 243.644 200.095 223.054 215.906 203.726C230.816 185.499 247.407 169.508 264.796 153.735" stroke="#1E1E1E" stroke-width="16" stroke-linecap="round" stroke-linejoin="round"/>
<path d="M124.284 326.471C135.448 304.773 149.808 284.743 163.651 264.698C175.083 248.143 186.684 231.676 198.994 215.759C212.142 198.76 226.527 183.17 241.09 167.411" stroke="#1E1E1E" stroke-width="16" stroke-linecap="round" stroke-linejoin="round"/>
<path d="M123.464 316.518C135.137 296.888 148.962 279.016 163.302 261.269C184.793 234.674 207.987 210.232 233.134 187.086" stroke="#1E1E1E" stroke-width="16" stroke-linecap="round" stroke-linejoin="round"/>
<path d="M163.569 259.084C166.177 254.627 169.203 250.584 172.29 246.453C177.897 238.951 183.101 231.16 188.574 223.562C197.162 211.642 206.144 199.981 216.327 189.366C224.171 181.189 232.711 174.328 241.685 167.496" stroke="#1E1E1E" stroke-width="16" stroke-linecap="round" stroke-linejoin="round"/>
<path d="M237.911 203.925C239.38 203.424 240.478 202.434 241.558 201.328C246.891 195.864 251.117 189.292 255.565 183.126C271.724 160.723 287.579 138.066 304.107 115.935C321.268 92.9566 339.457 70.8645 359.84 50.6629C363.84 46.6981 367.838 42.6883 372.096 38.9959C374.512 36.9011 371.439 39.4845 370.859 39.9699C363.488 46.1396 355.467 51.4959 348.161 57.731C337.556 66.7803 329.921 79.6386 322.412 91.1962C310.55 109.455 299.338 128.128 286.948 146.042C279.151 157.315 270.992 168.298 264 180.103" stroke="#1E1E1E" stroke-width="16" stroke-linecap="round" stroke-linejoin="round"/>
<path d="M243.343 202.775C244.276 194.702 248.954 187.871 252.982 180.985C265.518 159.551 279.526 138.95 293.887 118.706C306.983 100.245 320.535 82.0587 335.402 64.9757C337.264 62.8365 338.251 61.7545 340.066 59.7408C340.584 59.1673 342.336 57.8241 341.581 57.9875C339.442 58.4506 335.784 64.1024 334.573 65.5039C303.133 101.909 276.629 141.734 256.092 185.256C253.903 189.894 251.935 194.74 249.442 199.23C248.485 200.952 250.019 195.315 250.626 193.441C261.364 160.265 277.821 128.76 298.44 100.673C305.71 90.769 313.608 81.2661 322.445 72.7143C324.484 70.7413 326.413 68.9361 328.679 67.2662C329.327 66.789 330.833 65.5102 330.896 66.3122C331.008 67.7391 329.538 68.8415 328.706 70.006C326.93 72.491 323.431 77.0921 321.793 79.2617C313.304 90.499 304.845 101.748 296.885 113.37C278.986 139.505 263.97 167.224 247.705 194.346C246.038 197.125 241.651 205.211 241.675 201.97C241.686 200.579 243.195 196.843 243.406 196.286C246.26 188.739 249.506 181.294 252.946 173.999C266.243 145.803 282.985 118.185 305.521 96.3722C308.955 93.0478 314.543 86.6647 319.565 85.4521C323.242 84.5645 317.053 92.6771 314.935 95.8101C296.446 123.153 276.817 149.627 258.883 177.368C251.621 188.6 244.756 200.244 236.719 210.954C236.248 211.582 232.887 215.979 231.441 216.67C229.095 217.792 230.55 211.396 231.177 208.871C238.188 180.663 254.104 153.861 272.732 131.832C277.891 125.732 284.13 117.748 291.45 113.973C292.599 113.38 294.007 112.719 293.665 114.763C293.264 117.163 290.715 121.366 289.808 122.944C282.889 134.982 275.121 146.558 267.761 158.328C259.952 170.817 252.467 183.542 244.304 195.805C242.339 198.758 239.631 202.861 237.051 205.556C236.979 205.631 234.482 208.832 233.706 206.676C232.955 204.59 234.275 199.757 234.605 198.44C236.136 192.332 237.879 187.48 240.315 181.562C251.173 155.186 268.122 129.006 289.879 110.254C290.233 109.948 300.662 100.961 298.284 107.818C294.709 118.126 286.262 127.77 280.211 136.629C270.697 150.555 261.276 164.549 251.686 178.423C246.296 186.221 240.745 196.177 233.073 202.089C227.406 206.456 230.621 195.839 231.056 194.428C236.287 177.469 245.657 161.467 255.802 147.031C264.798 134.229 275.05 122.202 286.468 111.495C289.057 109.067 293.978 104.817 297.068 102.631C298.674 101.494 300.585 99.3607 302.405 100.109C304.769 101.082 292.328 117.073 292.277 117.142C282.171 130.862 271.92 144.467 261.965 158.298C252.825 170.999 244.074 184.008 234.645 196.497C234.013 197.334 225.053 210.741 222.24 208.966C219.002 206.923 226.597 191.595 227.204 190.218C235.183 172.116 245.914 155.25 258.285 139.849C265.799 130.495 273.969 121.301 283.148 113.528C284.569 112.326 292.376 105.9 288.984 112.974C283.756 123.875 275.863 133.872 269.15 143.858C260.247 157.104 251.493 170.46 242.442 183.606C241.383 185.144 232.39 200.787 228.805 199.825C225.553 198.953 233.973 181.572 234.13 181.237C245.076 157.949 260.995 137.689 280.742 121.289" stroke="#1E1E1E" stroke-width="16" stroke-linecap="round" stroke-linejoin="round"/>
<path d="M197.714 213.082C204.452 201.851 212.489 191.269 220.254 180.743C233.058 163.386 246.521 146.551 260.447 130.086" stroke="#1E1E1E" stroke-width="16" stroke-linecap="round" stroke-linejoin="round"/>
<path d="M188.672 217.862C195.071 207.089 205.304 198.087 213.256 188.494C235.771 161.334 260.01 135.712 282.253 108.313" stroke="#1E1E1E" stroke-width="16" stroke-linecap="round" stroke-linejoin="round"/>
<path d="M203.903 201.615C203.148 201.513 206.387 197.243 206.407 197.216C212.812 188.618 219.126 179.947 225.627 171.421C237.365 156.029 248.923 140.449 262.048 126.191C275.891 111.153 291.302 97.5913 306.27 83.6998" stroke="#1E1E1E" stroke-width="16" stroke-linecap="round" stroke-linejoin="round"/>
<path d="M199.919 200.33C200.898 196.782 202.95 193.943 205.372 191.202C209.583 186.435 213.537 181.577 217.555 176.643C221.167 172.21 225.552 168.789 229.551 164.76C233.448 160.835 236.873 156.485 240.793 152.572C251.967 141.42 260.659 127.369 270.14 114.798C284.492 95.7665 299.07 77.7249 317.616 62.6094" stroke="#1E1E1E" stroke-width="16" stroke-linecap="round" stroke-linejoin="round"/>
<path d="M224.229 164.027C227.156 156.753 232.211 150.481 237.08 144.405C244.938 134.598 253.062 124.829 261.874 115.866C280.461 96.9619 298.039 77.0656 317.254 58.7903" stroke="#1E1E1E" stroke-width="16" stroke-linecap="round" stroke-linejoin="round"/>
<path d="M246.334 222.014C248.62 215.739 253.939 210.408 257.648 204.947C267.634 190.249 277.437 175.433 287.554 160.822C308.387 130.735 330.302 99.4771 358.344 75.6303" stroke="#1E1E1E" stroke-width="16" stroke-linecap="round" stroke-linejoin="round"/>
<path d="M264.456 215.229C274.853 193.712 288.291 174.011 301.56 154.194C316.855 131.351 332.72 108.347 352.455 89.0645" stroke="#1E1E1E" stroke-width="16" stroke-linecap="round" stroke-linejoin="round"/>
<path d="M259.654 220.073C262.269 218.096 264.019 214.936 265.82 212.27C273.649 200.681 281.201 188.932 289.265 177.498C309.194 149.239 328.718 120.804 351.137 94.4382" stroke="#1E1E1E" stroke-width="16" stroke-linecap="round" stroke-linejoin="round"/>
<path d="M269.489 215.032C283.894 191.307 299.781 168.574 314.001 144.751" stroke="#1E1E1E" stroke-width="16" stroke-linecap="round" stroke-linejoin="round"/>
<path d="M294.262 178.854C295.781 175.68 298.064 172.971 300.135 170.146C305.149 163.309 310.113 156.437 315.107 149.585C331.414 127.211 348.006 105.202 365.843 84.0233" stroke="#1E1E1E" stroke-width="16" stroke-linecap="round" stroke-linejoin="round"/>
<path d="M185.829 299.997C210.535 262.167 234.705 222.125 269.775 192.977" stroke="#1E1E1E" stroke-width="16" stroke-linecap="round" stroke-linejoin="round"/>
<path d="M147.004 369.266C151.202 365.139 154.617 359.98 157.9 355.144C168.542 339.466 178.521 323.373 189.326 307.795C211.593 275.689 233.82 243.394 257.103 212.019" stroke="#1E1E1E" stroke-width="16" stroke-linecap="round" stroke-linejoin="round"/>
<path d="M157.101 376.41C157.931 376.742 161.387 367.93 161.715 367.294C169.153 352.884 177.672 338.971 186.052 325.098C198.493 304.504 211.021 283.855 224.305 263.794C238.065 243.013 253.588 223.634 269.398 204.402" stroke="#1E1E1E" stroke-width="16" stroke-linecap="round" stroke-linejoin="round"/>
<path d="M164.833 374.933C164.788 375.317 164.728 375.694 164.664 376.075" stroke="#1E1E1E" stroke-width="16" stroke-linecap="round" stroke-linejoin="round"/>
<path d="M164.496 381.707C162.92 378.881 167.064 373.796 168.23 371.469C175.13 357.697 182.573 344.267 189.78 330.657C200.342 310.711 210.184 290.443 222.311 271.368C234.321 252.479 247.646 234.55 261.579 217.051" stroke="#1E1E1E" stroke-width="16" stroke-linecap="round" stroke-linejoin="round"/>
<path d="M186.928 340.148C194.083 320.587 206.301 302.319 216.922 284.533C232.279 258.815 248.601 233.795 270.32 212.989" stroke="#1E1E1E" stroke-width="16" stroke-linecap="round" stroke-linejoin="round"/>
<path d="M186.078 330.834C185.623 329.344 186.274 329.567 187.55 329.133C191.468 327.803 193.773 322.121 195.504 318.864C202.254 306.167 208.43 293.252 215.756 280.853C225.075 265.084 235.725 250.621 247.046 236.267" stroke="#1E1E1E" stroke-width="16" stroke-linecap="round" stroke-linejoin="round"/>
<path d="M194.619 329.311C202.694 313.026 213.241 298.192 223.357 283.133C236.829 263.077 250.87 243.683 266.351 225.13" stroke="#1E1E1E" stroke-width="16" stroke-linecap="round" stroke-linejoin="round"/>
<path d="M147.253 365.157C146.827 360.874 146.899 359.548 142.928 361.826C139.394 363.853 143.959 359.361 141.037 361.739C139.472 363.012 138.808 362.521 138.808 360.399C138.808 357.051 138.254 357.652 135.405 357.857C131.133 358.164 130.821 354.182 127.941 352.419C125.923 351.182 123.716 351.826 121.878 350.014C119.541 347.711 110.035 349.176 109.318 346.161" stroke="#1E1E1E" stroke-width="16" stroke-linecap="round" stroke-linejoin="round"/>
<path d="M105.813 346.83C106.967 340.683 112.432 335.448 116.097 330.654C119.822 325.779 123.488 319.843 129.047 316.881" stroke="#1E1E1E" stroke-width="16" stroke-linecap="round" stroke-linejoin="round"/>
<path d="M102.26 341.752C105.844 333.538 112.447 328.874 118.91 323.102" stroke="#1E1E1E" stroke-width="16" stroke-linecap="round" stroke-linejoin="round"/>
<path d="M106.744 335.405C111.431 326.379 117.064 317.533 124.909 310.949" stroke="#1E1E1E" stroke-width="16" stroke-linecap="round" stroke-linejoin="round"/>
<path d="M99.2609 344.21C98.8677 344.21 95.5762 343.956 97.6462 343.956C98.7754 343.956 98.9931 344.247 99.7349 344.962C101.178 346.353 107.058 346.278 108.988 346.716C112.488 347.51 117.373 348.435 118.725 352.079C119.215 353.401 122.1 358.919 123.852 356.555C125.591 354.207 121.235 353.756 119.939 353.418C116.863 352.616 113.993 351.838 110.831 351.384C106.954 350.829 104.071 348.556 100.488 347.338" stroke="#1E1E1E" stroke-width="16" stroke-linecap="round" stroke-linejoin="round"/>
<path d="M94.3606 345.607C93.7468 344.873 93.7544 344.637 93.5987 343.83" stroke="#1E1E1E" stroke-width="16" stroke-linecap="round" stroke-linejoin="round"/>
<path d="M267.554 110.389C267.893 105.665 270.394 102.419 273.172 98.6397C281.838 86.8493 291.404 75.85 302.155 65.9073" stroke="#1E1E1E" stroke-width="16" stroke-linecap="round" stroke-linejoin="round"/>
<path d="M258.867 112.959C265.826 105.044 271.781 96.411 279.079 88.726C291.308 75.8483 304.299 63.847 318.503 53.192" stroke="#1E1E1E" stroke-width="16" stroke-linecap="round" stroke-linejoin="round"/>
<path d="M290.477 81.7229C294.389 68.4137 304.228 57.4836 313.229 47.2826C320.896 38.5931 328.819 29.1446 339.098 23.5378" stroke="#1E1E1E" stroke-width="16" stroke-linecap="round" stroke-linejoin="round"/>
<path d="M304.984 61.7557C310.723 52.3601 318.24 43.8457 325.282 35.4105C327.902 32.2721 330.785 29.3704 333.24 26.0959C334.123 24.9182 335.685 23.5445 336.193 22.134C336.493 21.3008 334.137 18.224 334.858 19.3363C338.739 25.3224 345.759 28.4544 350.953 32.9932C359.207 40.2064 369.33 45.3001 378.316 51.6249C380.647 53.266 383.551 54.1786 385.006 56.8134C385.888 58.4106 385.572 60.3822 386.344 62.0133C387.124 63.6621 388.151 63.577 386.694 65.3022C384.393 68.0275 382.125 70.7619 379.98 73.6124C378.366 75.757 373.324 82.0133 375.195 80.0889C378.707 76.4772 381.528 72.2006 385.107 68.5782C387.891 65.7606 390.006 62.4159 392.296 59.2037C393.334 57.7482 390.812 56.8758 389.655 56.5588C384.477 55.1398 379.334 54.2144 374.247 52.3732C368.433 50.269 363.434 47.5623 358.221 44.2957C353.989 41.6435 347.339 45.0039 342.664 44.8818C338.48 44.7725 335.222 42.8854 331.334 41.9454C327.578 41.037 322.404 48.4457 321.619 51.5166C321.272 52.8746 321.582 54.4785 323.33 54.3172C326.282 54.045 328.885 50.1382 330.558 48.1058C332.632 45.5867 335.062 40.9825 338.195 39.619C339.045 39.2492 334.881 46.9026 334.424 47.5517C332.733 49.9568 330.918 52.3097 328.882 54.435C328.254 55.0902 326.56 56.8166 326.593 55.9098C326.745 51.7146 331.212 46.1974 333.813 43.2084C334.727 42.1578 339.109 37.4712 340.052 40.913C340.752 43.4671 339.612 46.5569 341.488 48.7523C345.931 53.9533 354.769 54.0706 359.864 58.9081C363.839 62.6814 367.431 70.2623 367.235 75.8654C367.2 76.8631 366.716 79.7785 365.369 80.0509C364.879 80.1499 365.656 79.0808 365.925 78.6601C366.979 77.0116 368.176 75.4433 369.396 73.9154C370.832 72.1166 372.357 70.3976 373.887 68.679C374.395 68.1089 375.916 66.962 375.173 66.7845C372.874 66.2345 369.744 68.3584 367.333 68.3865C364.197 68.423 363.827 65.3179 364.924 62.9529C365.657 61.3724 367.422 60.0848 365.466 62.5625C363.979 64.4458 360.16 69.8978 357.382 69.8732C356.895 69.8689 358.182 67.6659 358.783 67.6786C359.685 67.6976 357.665 69.0994 357.027 69.7359C355.395 71.3615 353.635 72.9475 351.617 74.0832C347.24 76.547 352.195 70.0482 352.979 69.1064" stroke="#1E1E1E" stroke-width="16" stroke-linecap="round" stroke-linejoin="round"/>
<path d="M338.712 8.62689C336.321 9.28574 342.058 12.6048 342.764 13.0866C344.387 14.1936 345.581 15.5265 346.976 16.8758C349.332 19.1556 352.443 20.3369 354.999 22.3381C361.716 27.5977 367.259 34.4974 373.717 40.0605C376.034 42.0562 378.297 43.8444 380.47 46.0156C381.863 47.4075 383.244 48.2819 385.215 48.5125" stroke="#1E1E1E" stroke-width="16" stroke-linecap="round" stroke-linejoin="round"/>
<path d="M373.899 36.3814C374.922 38.574 377.53 39.1523 379.169 40.801C381.188 42.8319 383.203 44.8509 384.916 47.1555C387.044 50.0185 390.488 54.3057 394.511 54.3057" stroke="#1E1E1E" stroke-width="16" stroke-linecap="round" stroke-linejoin="round"/>
<path d="M348.732 36.2044C347.851 34.513 348.847 35.4153 349.9 35.9797" stroke="#1E1E1E" stroke-width="6" stroke-linecap="round" stroke-linejoin="round"/>
<path d="M342.426 5.25714C343.195 4.51952 349.431 9.29281 350.105 9.93622C353.171 12.8635 354.566 16.2079 358.427 18.4082C364.264 21.7349 369.164 25.8635 374.232 30.2145C377.088 32.6663 380.322 35.6863 382.658 38.6332C385.003 41.5911 385.853 45.1087 389.7 46.3681" stroke="#1E1E1E" stroke-width="6" stroke-linecap="round" stroke-linejoin="round"/>
<path d="M401.063 53.1076C399.341 53.1076 398.052 50.7122 397.023 49.5699C392.972 45.073 387.662 41.0516 382.752 37.5216C375.98 32.6533 370.063 26.8059 363.229 22.0821C354.746 16.219 347.044 9.40406 338.911 3.08551" stroke="#1E1E1E" stroke-width="6" stroke-linecap="round" stroke-linejoin="round"/>
<path d="M400.24 56.1029C402.827 55.9459 401.201 55.9182 400.812 54.6801" stroke="#1E1E1E" stroke-width="6" stroke-linecap="round" stroke-linejoin="round"/>
<path d="M402.208 55.252C402.247 57.2339 403.128 55.9075 402.999 54.5508C402.696 51.3377 400.449 49.1955 397.964 47.4966C390.501 42.3955 384.134 35.8063 376.723 30.5575C365.496 22.6062 354.18 15.2572 344.096 5.8562" stroke="#1E1E1E" stroke-width="6" stroke-linecap="round" stroke-linejoin="round"/>
<path d="M23.4361 460.252C21.1205 460.642 23.048 458.655 23.8256 457.837C27.698 453.762 30.3902 448.835 34.0731 444.611C38.7277 439.271 43.9874 434.538 48.4988 429.052C52.4304 424.272 56.1253 419.312 60.2385 414.682" stroke="white" stroke-width="6" stroke-linecap="round" stroke-linejoin="round"/>
<path d="M29.634 455.059C41.1065 432.186 55.0526 409.395 74.8917 392.801" stroke="white" stroke-width="6" stroke-linecap="round" stroke-linejoin="round"/>
<path d="M21.3499 460.026C20.6815 459.363 19.7517 459.946 19.2174 459.086C18.496 457.925 18.7039 456.354 18.7039 455.049C18.7039 450.715 22.0409 446.459 24.1361 442.954C28.0128 436.469 32.7866 430.524 37.2049 424.408C42.08 417.659 46.9553 410.872 52.1581 404.371C58.1295 396.91 64.3972 389.592 70.6432 382.358C75.8695 376.306 81.3206 370.343 87.1199 364.838" stroke="white" stroke-width="6" stroke-linecap="round" stroke-linejoin="round"/>
<path d="M82.7229 360.737C83.38 359.412 84.9632 357.773 86.1036 356.863" stroke="white" stroke-width="6" stroke-linecap="round" stroke-linejoin="round"/>
<path d="M68.2765 437.262C68.2756 437.712 67.8802 443.438 69.5385 442.744C70.5851 442.306 71.3352 440.505 71.7515 439.656C74.0035 435.062 75.6656 430.171 77.6546 425.462C81.5654 416.205 85.9187 405.048 93.6209 398.17C94.3533 397.516 96.4342 395.686 97.5934 396.78C99.4255 398.508 97.7922 403.602 97.3559 405.471C95.3155 414.209 92.2024 422.797 89.1914 431.241C88.4894 433.209 87.7919 435.197 86.9531 437.113C85.9026 439.513 86.6497 435.824 86.6852 435.638C87.3196 432.324 88.2102 429.038 89.2699 425.835C90.7273 421.431 92.4239 416.216 95.6275 412.706C97.0285 411.17 97.9059 411.823 97.9867 413.669C98.196 418.453 96.4593 423.563 95.2744 428.126C93.6241 434.482 92.2054 441.295 89.5248 447.323C89.2123 448.026 88.5773 449.093 88.6775 447.459C88.9758 442.595 90.5566 437.577 92.1366 433.017C93.838 428.108 95.8859 423.242 98.6575 418.831C98.9874 418.306 103.437 411.276 104.289 415.444C104.93 418.577 103.821 422.433 103.156 425.436C101.712 431.963 99.7978 438.406 97.8412 444.795C96.8372 448.073 95.809 451.356 94.6107 454.57C93.8815 456.525 93.2782 457.451 93.8204 454.547C95.6403 444.799 99.2603 434.107 105.069 425.998C105.263 425.726 107.912 421.769 109.042 423.408C110.594 425.66 108.478 431.077 107.873 433.268C106.501 438.235 104.663 443.064 103.406 448.059" stroke="white" stroke-width="16" stroke-linecap="round" stroke-linejoin="round"/>
<path d="M77.4629 494.255C73.0576 490.355 72.9754 484.109 71.9596 478.661C70.6078 471.412 70.2543 464.118 71.489 456.807C72.04 453.545 72.8399 450.21 74.1119 447.148C74.576 446.031 75.4263 443.934 76.8305 443.664C78.3786 443.366 78.7065 447.773 79.0962 448.793" stroke="white" stroke-width="16" stroke-linecap="round" stroke-linejoin="round"/>
<path d="M82.2521 482.909C80.1059 473.317 82.3726 462.708 85.0286 453.443C86.4604 448.448 87.4472 442.092 91.3636 438.335" stroke="white" stroke-width="16" stroke-linecap="round" stroke-linejoin="round"/>
<path d="M87.5514 485.937C88.9096 482.05 91.0209 478.668 92.9051 475.03C95.6534 469.724 98.1905 464.319 101.009 459.047C103.778 453.869 106.162 448.499 109.148 443.438C112.108 438.421 115.017 433.422 117.703 428.251" stroke="white" stroke-width="16" stroke-linecap="round" stroke-linejoin="round"/>
<path d="M57.9847 463.341C58.6415 461.511 59.516 459.816 60.3389 458.057C63.0516 452.258 65.2531 446.221 67.7016 440.31C73.067 427.356 79.0622 414.84 87.0058 403.259" stroke="white" stroke-width="16" stroke-linecap="round" stroke-linejoin="round"/>
<path d="M54.9214 475.514C55.1395 468.639 57.4265 461.851 59.908 455.498C63.2291 446.995 67.4899 438.939 71.996 431.017" stroke="white" stroke-width="16" stroke-linecap="round" stroke-linejoin="round"/>
<path d="M52.4037 468.324C51.9495 467.609 51.8143 467.003 51.8799 466.136C52.1771 462.211 53.5905 458.263 54.737 454.533C56.3583 449.26 58.1762 444.045 60.5032 439.036C62.8465 433.992 65.8247 429.608 69.029 425.105" stroke="white" stroke-width="16" stroke-linecap="round" stroke-linejoin="round"/>
<path d="M52.6676 459.934C53.6355 451.605 58.4156 443.341 62.209 436.027C67.5766 425.678 73.4611 415.688 79.9235 405.989" stroke="white" stroke-width="16" stroke-linecap="round" stroke-linejoin="round"/>
<path d="M62.2855 426.311C63.0076 420.828 65.1985 416.542 67.9994 411.825C71.6507 405.677 75.7718 399.778 80.566 394.462C85.8824 388.568 92.8435 383.548 100.959 382.791C105.844 382.335 110.563 382.851 115.363 383.619C115.823 383.692 120.661 383.975 118.289 383.278C116.514 382.757 114.623 382.643 112.803 382.347C110.107 381.909 107.538 381.047 104.889 380.413C100.874 379.454 96.3178 379.34 92.5842 377.396C90.3257 376.22 88.7602 374.894 86.2219 376.617C84.9841 377.456 83.9301 378.61 82.9282 379.71C82.5848 380.087 81.2801 381.546 82.5757 380.581C86.9531 377.319 90.9584 373.837 95.7147 371.077C95.9438 370.944 99.0937 369.295 98.3683 369.496C95.4428 370.31 93.0235 371.875 90.6829 373.818C88.3222 375.777 85.2199 377.106 82.654 378.825C79.214 381.129 76.5191 383.822 74.1048 387.187C65.4145 399.301 61.3232 413.559 57.9594 427.928C56.4694 434.293 55.2649 441.015 55.0922 447.567C55.0468 449.287 55.1768 451.318 57.454 450.44C59.169 449.779 60.6147 448.438 61.9677 447.243C64.4304 445.067 66.8 442.783 69.1915 440.53C75.8776 434.231 82.6942 428.059 89.6852 422.099C94.6273 417.885 99.6256 413.498 105.304 410.288C108.833 408.293 113.681 407.432 116.371 404.185C117.561 402.748 119.283 400.348 119.636 398.498C119.98 396.696 117.851 395.657 116.556 394.97C112.152 392.634 109.387 396.119 108.305 400.416C107.694 402.847 109.738 402.72 111.431 401.935C114.955 400.302 118.064 397.752 121.243 395.56C123.491 394.01 125.894 392.351 128.615 391.778C129.501 391.592 131.271 391.269 132.066 391.912C134.556 393.926 128.3 402.049 127.248 403.675C123.479 409.502 119.892 415.521 115.738 421.086C113.777 423.713 111.688 426.266 109.634 428.821C108.435 430.313 106.852 431.823 106.184 433.663C105.634 435.176 108.284 431.221 109.238 429.926C112.48 425.526 115.878 421.109 120.046 417.534C120.385 417.243 122.561 415.118 123.272 415.75C123.964 416.366 122.903 418.444 122.66 418.991C120.747 423.313 117.785 427.206 115.067 431.039C112.247 435.015 109.676 439.483 106.354 443.069C105.82 443.646 105.459 443.518 105.476 444.274C105.501 445.429 104.902 446.192 104.316 447.175C102.601 450.057 101.039 453.025 99.4231 455.962" stroke="white" stroke-width="16" stroke-linecap="round" stroke-linejoin="round"/>
<path d="M60.3894 399.095C59.9216 394.689 62.8788 391.92 65.4923 388.613C70.1846 382.673 74.1672 375.883 79.9973 370.995" stroke="white" stroke-width="6" stroke-linecap="round" stroke-linejoin="round"/>
<path d="M50.814 417.012C50.7964 414.708 51.2524 412.663 52.1281 410.522C52.6418 409.266 53.7025 406.085 55.2185 405.558C55.8319 405.345 54.637 408.455 54.5946 408.548C53.9434 409.969 53.1389 411.333 52.3189 412.663C51.0132 414.781 54.0375 407.967 55.2834 405.814C55.43 405.561 57.296 402.461 57.296 404.123" stroke="white" stroke-width="6" stroke-linecap="round" stroke-linejoin="round"/>
<path d="M54.6104 405.16C55.9613 401.777 58.2576 398.428 60.5417 395.609C61.9795 393.834 62.9471 392.184 64.1304 390.241C66.8037 385.85 69.7192 381.739 72.7946 377.616" stroke="white" stroke-width="6" stroke-linecap="round" stroke-linejoin="round"/>
<path d="M65.5356 385.538C67.2966 382.688 69.3653 379.96 71.3322 377.247" stroke="white" stroke-width="6" stroke-linecap="round" stroke-linejoin="round"/>
<path d="M36.0395 455.866C34.5697 455.023 36.5082 459.415 36.699 460.076C36.7311 460.187 37.2653 462.215 36.982 462.044C36.3932 461.686 35.9939 460.709 35.7181 460.105C35.682 460.026 35.5717 459.413 35.513 459.453C34.5562 460.096 34.9592 463.151 34.966 464.034C34.9764 465.374 34.6089 467.482 35.158 468.746C35.4535 469.427 36.047 469.953 36.3987 470.608C37.289 472.266 37.9076 474.021 39.3758 475.251C43.9149 479.055 49.582 481.885 53.2627 486.649C54.2756 487.96 55.0894 489.35 56.4113 490.393C57.5086 491.258 58.966 491.516 60.2322 492.042C61.7934 492.692 63.0598 493.811 64.4151 494.788C66.353 496.185 68.5123 496.961 70.703 497.856" stroke="white" stroke-width="6" stroke-linecap="round" stroke-linejoin="round"/>
<path d="M82.5915 506.056C84.1492 502.633 87.4858 499.801 89.6432 496.758C90.9736 494.882 92.5366 493.236 93.9132 491.406C95.5678 489.207 96.4378 486.517 97.8018 484.144C102.072 476.714 106.375 469.338 111.124 462.194" stroke="white" stroke-width="6" stroke-linecap="round" stroke-linejoin="round"/>
<path d="M97.2745 481.113C98.4806 477.946 101.011 475.265 102.663 472.304C105.777 466.72 108.779 461.082 112.129 455.634C118.201 445.758 123.91 435.747 130.493 426.193" stroke="white" stroke-width="6" stroke-linecap="round" stroke-linejoin="round"/>
<path d="M107.887 467.015C110.366 461.723 113.18 456.447 116.265 451.493C120.898 444.053 125.192 436.384 130.068 429.106" stroke="white" stroke-width="6" stroke-linecap="round" stroke-linejoin="round"/>
<path d="M112.569 460.337C114.321 454.565 118.812 449.297 122.7 444.833" stroke="white" stroke-width="6" stroke-linecap="round" stroke-linejoin="round"/>
<path d="M118.457 445.648C122.033 436.567 127.782 428.295 133.209 420.234C137.798 413.416 142.583 406.42 148.273 400.465" stroke="white" stroke-width="6" stroke-linecap="round" stroke-linejoin="round"/>
<path d="M143.088 412.58C143.917 409.897 145.756 407.79 147.389 405.548C149.323 402.892 151.16 400.418 153.715 398.336" stroke="white" stroke-width="6" stroke-linecap="round" stroke-linejoin="round"/>
<path d="M145.718 410.077C146.529 407.945 148.416 406.481 150.066 404.993" stroke="white" stroke-width="6" stroke-linecap="round" stroke-linejoin="round"/>
<path d="M154.179 399.353C151.87 399.041 149.858 397.992 147.799 396.942C142.954 394.473 138.264 391.761 133.681 388.835C130.185 386.602 126.718 384.304 123.418 381.788C121.582 380.39 127.343 384.214 129.319 385.406C133.723 388.065 138.197 390.654 142.897 392.76C143.625 393.086 148.49 395.108 145.271 393.214C139.845 390.021 134.27 387.182 129.328 383.219C128.297 382.391 125.732 380.578 125.517 378.969C125.388 378.007 126.876 378.496 127.256 378.436" stroke="white" stroke-width="6" stroke-linecap="round" stroke-linejoin="round"/>
<path d="M142.529 386.61C143.556 387.368 144.574 388.138 145.625 388.863C146.539 389.494 149.513 390.74 148.402 390.707C146.681 390.656 143.91 388.734 142.48 388.017C139.024 386.285 135.576 384.433 132.492 382.084C131.712 381.49 129.728 379.913 130.696 379.752C132.523 379.448 135.359 381.187 136.901 381.903C140.358 383.508 143.871 385.297 146.902 387.612" stroke="white" stroke-width="6" stroke-linecap="round" stroke-linejoin="round"/>
<path d="M147.714 387.409C147.879 387.632 149.209 389.04 148.246 388.636C147.885 388.485 145.751 387.114 145.827 387.103C147.611 386.848 150.272 388.502 151.769 389.283C152.332 389.576 153.469 390.055 153.753 390.672" stroke="white" stroke-width="6" stroke-linecap="round" stroke-linejoin="round"/>
<path d="M152.27 410.147C153.962 407.13 156.223 404.515 158.401 401.841" stroke="#1E1E1E" stroke-width="6" stroke-linecap="round" stroke-linejoin="round"/>
<path d="M156.717 403.88C157.257 402.493 157.809 401.328 158.678 400.116" stroke="#1E1E1E" stroke-width="6" stroke-linecap="round" stroke-linejoin="round"/>
<path d="M59.1122 449.936C59.5146 445.769 60.2411 441.45 62.3942 437.777C62.857 436.987 64.2205 435.401 63.872 437.47C63.4401 440.034 62.3194 442.546 61.2797 444.911C61.223 445.04 59.9348 447.808 60.798 445.567C62.2285 441.852 63.981 438.25 65.622 434.626C65.7347 434.377 68.2668 428.854 66.9027 432.136C65.8482 434.673 64.6941 437.177 63.486 439.645C61.5052 443.69 67.4057 431.527 69.6222 427.606C70.0097 426.92 72.6459 422.632 71.2618 426.099C70.2199 428.709 68.9594 431.378 67.4475 433.751C65.4182 436.936 66.0116 432.247 66.2781 430.934C66.3942 430.362 66.8981 428.851 66.3096 430.441C65.4531 432.756 64.4024 435.045 63.0924 437.141C61.3807 439.879 62.1155 436.588 62.2084 435.306C62.3811 432.923 59.2963 437.628 58.979 438.027C57.8152 439.491 55.9343 437.623 54.2239 437.854C52.9257 438.029 52.0807 439.23 50.815 439.463C50.0454 439.605 49.2293 439.472 48.4506 439.541C47.4895 439.625 47.2612 439.163 46.4686 438.837C42.7702 437.314 42.275 441.916 42.194 444.244C42.1225 446.3 39.9838 450.598 42.4485 446.598C44.3849 443.456 46.3903 440.252 48.7101 437.379C50.4281 435.251 52.8073 433.771 54.512 431.702C55.053 431.046 57.0122 426.523 57.0394 429.087C57.0743 432.374 56.8445 435.082 54.9991 437.943C52.3931 441.984 48.0859 444.567 45.8871 448.836C45.066 450.43 42.8288 454.721 44.4791 456.212" stroke="white" stroke-width="6" stroke-linecap="round" stroke-linejoin="round"/>
<path d="M83.6241 415.018C79.385 414.081 75.7112 412.594 72.1218 415.728C69.2872 418.203 65.814 420.972 64.0609 424.38C61.6189 429.126 58.2367 433.165 55.619 437.759C54.5143 439.698 53.7095 443.103 51.374 443.86C49.6134 444.43 47.9014 445.544 46.0296 445.689C44.7032 445.792 43.6148 445.421 42.4036 446.839C42.0054 447.305 42.146 448.048 41.8666 448.25C40.8711 448.966 38.3537 449.403 39.69 451.111C41.8479 453.868 42.5589 457.077 43.8498 460.294C45.2331 463.74 46.7719 465.767 49.0512 468.716C50.152 470.141 50.9819 471.768 52.3024 473.024C53.4765 474.141 55.1062 474.061 56.5695 474.481C59.3808 475.287 62.1238 477.149 64.5009 478.807C67.192 480.684 70.6247 480.632 73.1119 483.004C74.1956 484.037 78.1987 486.332 78.2674 487.816C78.3901 490.469 74.9191 491.218 73.0236 490.851C70.8363 490.427 69.9364 489.585 68.4575 488.172C67.3624 487.125 67.0047 485.563 65.9095 484.578C64.5676 483.37 62.1754 483.834 61.0935 482.277" stroke="white" stroke-width="12" stroke-linecap="round" stroke-linejoin="round"/>
<path d="M29.8685 452.545C29.8685 447.906 33.3764 447.089 36.6949 444.503C38.5143 443.085 40.5901 442.156 42.5242 440.904C44.6547 439.524 46.7312 437.597 49.2159 436.889C51.2661 436.305 52.7164 436.488 54.7337 435.469C56.7049 434.474 53.8214 435.773 53.2934 436.115C50.8289 437.712 48.734 439.808 46.2934 441.456C45.2879 442.135 37.6581 445.738 37.5883 442.846C37.5413 440.904 38.8135 438.842 38.9491 436.813C39.0499 435.305 39.9519 435.059 40.9461 433.948C45.7323 428.599 51.4925 424.077 56.0843 418.534C57.5544 416.76 59.5824 414.625 59.212 412.139C58.7585 409.096 51.5433 412.18 50.8274 414.066C49.4883 417.594 45.6828 420.584 44.9225 424.204C44.0825 428.203 44.8896 430.304 41.7886 433.621C40.382 435.125 38.0613 436.307 37.5368 438.408C37.1521 439.949 37.0361 441.249 36.0547 442.556C34.7837 444.248 33.1664 445.7 31.4654 446.948C31.2019 447.141 29.4578 447.961 30.4018 447.892" stroke="white" stroke-width="12" stroke-linecap="round" stroke-linejoin="round"/>
<path d="M120.911 426.27C123.892 419.275 130.989 413.064 136.054 407.57C139.621 403.699 143.522 399.519 148.112 396.836" stroke="white" stroke-width="12" stroke-linecap="round" stroke-linejoin="round"/>
<path d="M111.981 459.887C117.172 449.193 124.14 439.649 128.186 428.378" stroke="white" stroke-width="6" stroke-linecap="round" stroke-linejoin="round"/>
<path d="M121.888 438.418C122.945 434.994 125.389 432.069 127.534 429.265C130.576 425.291 132.773 421.006 134.573 416.351" stroke="white" stroke-width="6" stroke-linecap="round" stroke-linejoin="round"/>
<path d="M119.996 446.414C120.963 443.774 123.304 441.709 125.161 439.673C127.568 437.035 129.63 434.376 131.247 431.176C132.893 427.918 134.094 424.462 135.804 421.23C137.498 418.03 139.546 415.044 141.196 411.819" stroke="white" stroke-width="6" stroke-linecap="round" stroke-linejoin="round"/>
<path d="M125.228 439.363C125.273 436.246 128.619 433.229 130.576 431.075C133.87 427.449 136.078 422.687 138.363 418.383C142.289 410.989 145.958 403.51 150.065 396.214" stroke="white" stroke-width="6" stroke-linecap="round" stroke-linejoin="round"/>
<path d="M22.9197 451.123C21.1776 448.418 19.8378 450.827 18.5496 453.116C17.2326 455.456 17.8305 460.077 20.3657 461.456C23.4781 463.149 25.931 464.783 28.5713 467.193C32.1305 470.442 36.9684 470.71 41.0237 473.05C49.9951 478.227 58.9559 483.306 67.2734 489.53" stroke="white" stroke-width="6" stroke-linecap="round" stroke-linejoin="round"/>
<path d="M71.326 494.296C67.6279 493.381 67.9627 492.511 66.414 489.25C65.1728 486.637 64.4133 484.698 63.726 482C63.3843 480.658 62.4171 480.376 61.2192 480.129C59.0925 479.69 57.5325 478.169 55.6016 477.327C52.5217 475.984 49.3403 474.917 46.7349 472.676C45.3687 471.501 44.1132 469.97 42.363 469.453C40.8878 469.016 39.6889 468.421 38.8842 467.029C38.1479 465.756 38.4003 462.836 37.2546 461.968C36.434 461.347 35.342 460.143 34.6545 459.345C33.3171 457.793 33.5303 456.188 31.234 456.188C30.2019 456.188 28.2108 456.349 27.4637 455.533C27.0526 455.085 28.0209 459.069 29.1563 460.025C30.2478 460.943 32.2737 461.528 33.6189 461.87C37.4506 462.845 37.5841 464.814 39.777 467.438C39.9841 467.686 40.8402 468.792 40.759 467.922C40.4253 464.351 36.7919 462.126 34.7113 459.59C32.6743 457.107 29.8375 450.62 26.3461 450.126C25.5112 450.008 23.7699 449.199 23.4389 450.438C23.38 450.658 23.2981 450.29 23.2945 450.245C23.1094 447.893 24.804 445.747 26.076 443.926C28.2091 440.873 31.2305 438.469 33.261 435.358C34.3535 433.684 33.9093 433.946 33.5491 435.722C32.3051 441.854 31.3318 446.397 33.6648 452.441C35.6636 457.619 36.1578 463.107 41.6779 465.469C42.491 465.817 42.6201 466.805 43.321 467.401C43.8655 467.865 45.6185 469.025 45.1917 468.451C44.5321 467.565 41.9792 467.132 40.9953 466.956C39.0858 466.615 37.2924 466.441 35.7222 465.293C34.0653 464.082 32.0758 463.941 30.3194 462.87C28.9416 462.03 28.8936 460.563 27.8251 459.757C27.6489 459.625 27.1953 459.479 27.208 459.812C27.2479 460.866 29.4246 461.389 30.1392 461.653C34.1592 463.134 38.3403 463.922 41.6514 466.754C44.2091 468.94 47.2435 469.644 50.0528 471.274C52.2318 472.538 52.1917 474.237 53.8391 476.012C57.6918 480.162 63.2878 480.847 67.5429 484.321" stroke="white" stroke-width="6" stroke-linecap="round" stroke-linejoin="round"/>
<path d="M91.6675 486.954C91.6675 484.048 91.5985 487.658 91.2178 488.689C90.8784 489.607 90.1662 490.478 90.1576 491.48C90.148 492.598 88.7854 492.961 88.7993 494.003C88.8281 496.175 91.6308 494.836 89.6443 497.387C87.5377 500.092 83.7161 501.538 80.4178 501.74C77.766 501.903 73.0291 502.994 71.9759 500.141C71.3066 498.329 67.0324 499.652 65.7511 498.383C64.4004 497.045 62.4758 498.187 61.2408 496.461C60.6782 495.674 58.819 495.484 59.9429 494.506" stroke="white" stroke-width="6" stroke-linecap="round" stroke-linejoin="round"/>
<path d="M25.193 446.384C24.1545 446.384 23.376 446.157 22.6301 447.02C21.7609 448.026 20.6604 449.496 20.1754 450.755C19.8732 451.539 16.4811 455.205 16.6047 455.315C17.0697 455.726 17.2014 457.114 16.8823 457.688C16.6248 458.151 16.4068 459.219 16.097 459.527C15.5578 460.064 15.7691 455.532 15.5593 456.777C15.4461 457.448 15.121 458.285 15.4018 458.945C15.5951 459.4 16.0527 459.732 16.2912 460.174C16.8264 461.166 17.0434 462.269 17.7697 463.163C19.4614 465.245 22.4635 466.779 24.7733 468.062C26.3599 468.944 27.8055 469.627 29.1197 470.922C30.834 472.611 32.923 473.447 34.768 474.942C39.9126 479.113 44.0733 484.023 49.7066 487.613C53.0043 489.715 55.4994 492.836 58.8092 494.916C61.9487 496.889 65.3799 497.415 68.9541 498.08" stroke="white" stroke-width="6" stroke-linecap="round" stroke-linejoin="round"/>
<path d="M87.668 504.24C86.3392 504.29 85.1695 505.493 83.7679 505.682C82.9159 505.797 81.8736 505.218 81.0981 504.899C79.3418 504.174 77.596 503.36 76.1074 502.168C74.8546 501.165 73.4295 500.545 72.0565 499.733C70.116 498.586 68.6701 497.324 67.175 495.626C62.8609 490.725 58.3367 485.788 54.4856 480.522C53.4581 479.118 52.4054 477.452 50.9011 476.507C49.7584 475.789 48.4551 475.34 47.2984 474.62C44.3681 472.796 41.1335 471.406 38.8172 468.794C37.6503 467.478 36.477 466.224 35.3499 464.873C35.2231 464.721 34.7948 464.394 34.9926 464.399C35.865 464.418 36.9568 464.998 37.7624 465.296C39.2043 465.829 40.68 466.261 42.0823 466.891C46.7438 468.984 51.5955 469.784 56.6863 469.832" stroke="white" stroke-width="6" stroke-linecap="round" stroke-linejoin="round"/>
<path d="M97.3906 490.809C97.2612 490.465 97.1561 490.131 97.0737 489.784" stroke="white" stroke-width="6" stroke-linecap="round" stroke-linejoin="round"/>
<path d="M144.055 407.988C144.071 407.232 144.642 406.815 145.11 406.266C146.374 404.784 147.507 403.192 148.728 401.674C150.447 399.536 152.167 397.307 153.492 394.9C154.125 393.75 154.72 393.066 154.852 391.722C154.91 391.128 153.864 390.63 153.48 390.282C152.23 389.15 151.298 387.762 149.877 386.81C148.22 385.701 146.498 384.709 144.746 383.771C142.726 382.69 140.917 381.279 138.844 380.233C136.884 379.243 134.469 379.04 132.325 378.665C127.762 377.869 123.611 376.265 119.611 373.86C117.523 372.605 115.566 371.984 113.298 371.13C112.221 370.725 111.108 370.533 110.007 370.22C108.802 369.877 107.797 369.123 106.685 368.571C104.723 367.597 102.855 366.881 100.728 366.394C99.1677 366.037 97.5399 365.402 96.1952 364.533C94.9729 363.743 93.6035 362.79 92.1242 362.629C91.3239 362.542 90.1534 362.712 89.53 362.074" stroke="white" stroke-width="6" stroke-linecap="round" stroke-linejoin="round"/>
<path d="M79.7079 372.423C80.5511 368.65 83.1109 365.887 85.6887 363.132" stroke="white" stroke-width="6" stroke-linecap="round" stroke-linejoin="round"/>
<path d="M79.8893 370.163C79.798 369.193 80.7292 368.374 81.2613 367.649C82.2569 366.292 83.1891 364.893 84.3374 363.658" stroke="white" stroke-width="6" stroke-linecap="round" stroke-linejoin="round"/>
<path d="M79.1136 370.541C78.9866 370.111 79.7244 369.565 79.9522 369.28C81.0891 367.859 82.2192 366.491 83.1362 364.914" stroke="white" stroke-width="6" stroke-linecap="round" stroke-linejoin="round"/>
<path d="M81.7192 367.242C80.3807 366.827 82.6239 363.471 82.883 362.58C83.0673 361.947 82.0098 363.572 81.6942 363.904C81.1627 364.464 80.7219 364.466 80.29 365.049C79.963 365.49 79.6146 365.978 79.3207 366.434C78.6845 367.422 80.7435 364.564 81.4092 363.596C82.7133 361.701 83.6065 359.672 85.1218 357.912C86.4246 356.398 84.9206 358.401 84.5769 358.869C83.2434 360.687 82.0913 362.634 80.8004 364.484C80.3151 365.18 79.9117 366.235 79.1766 366.71C78.8344 366.931 78.6421 367.047 78.4292 367.412C78.013 368.124 77.6915 368.899 77.1752 369.545C75.8881 371.154 74.726 373.282 73.1786 374.626C72.7109 375.032 72.3413 375.933 72.3413 376.564" stroke="white" stroke-width="6" stroke-linecap="round" stroke-linejoin="round"/>
<path d="M158.275 387.97C157.917 387.869 157.604 387.771 157.302 387.556" stroke="white" stroke-width="6" stroke-linecap="round" stroke-linejoin="round"/>
<path d="M159.148 389.159C158.921 389.386 158.261 388.789 158.099 388.694C155.631 387.243 152.909 386.14 150.322 384.915C141.315 380.651 131.948 377.496 123.341 372.373" stroke="white" stroke-width="6" stroke-linecap="round" stroke-linejoin="round"/>
<path d="M155.785 385.13C152.7 384.548 149.806 383.207 146.955 381.94C142.45 379.938 137.777 378.296 133.41 376C128.709 373.528 123.722 371.781 118.949 369.471C113.376 366.775 107.747 364.285 102.383 361.183" stroke="white" stroke-width="6" stroke-linecap="round" stroke-linejoin="round"/>
<path d="M99.546 360.323C95.6705 358.929 92.0343 357.248 88.4915 355.142" stroke="white" stroke-width="6" stroke-linecap="round" stroke-linejoin="round"/>
<path d="M159.626 386.467C159.606 386.555 159.486 386.423 159.461 386.404" stroke="white" stroke-width="6" stroke-linecap="round" stroke-linejoin="round"/>
<path d="M162.032 386.584C157.195 383.074 151.139 381.587 145.628 379.359C130.732 373.337 115.246 368.507 101.46 360.093" stroke="white" stroke-width="6" stroke-linecap="round" stroke-linejoin="round"/>
<path d="M102.414 360.192C98.2142 358.917 93.4553 357.086 89.8584 354.53" stroke="white" stroke-width="6" stroke-linecap="round" stroke-linejoin="round"/>
<path d="M164.125 393.732C165.46 392.245 166.743 390.771 167.963 389.19" stroke="#1E1E1E" stroke-width="6" stroke-linecap="round" stroke-linejoin="round"/>
<path d="M161.966 394.421C162.743 390.718 166.255 387.159 168.804 384.572" stroke="#1E1E1E" stroke-width="6" stroke-linecap="round" stroke-linejoin="round"/>
<path d="M168.21 384.288C168.708 383.428 169.231 382.607 169.777 381.781" stroke="#1E1E1E" stroke-width="6" stroke-linecap="round" stroke-linejoin="round"/>
<path d="M77.8123 359.517C78.4756 357.706 79.5214 356.426 80.5378 354.827C81.5532 353.23 82.6934 351.71 83.734 350.128C84.5617 348.87 85.4135 347.134 87.0087 346.792" stroke="#1E1E1E" stroke-width="6" stroke-linecap="round" stroke-linejoin="round"/>
<path d="M88.0715 505.192C88.0715 501.931 90.9484 499.495 92.5099 496.801C93.9837 494.259 95.0285 491.559 97.0428 489.384C99.0453 487.221 100.308 484.253 101.847 481.758" stroke="white" stroke-width="4" stroke-linecap="round" stroke-linejoin="round"/>
<path d="M89.5042 501.461C89.5326 500.397 90.6732 499.181 91.2743 498.397C92.3394 497.008 93.3828 496.086 94.1991 494.507C94.9965 492.964 96.3797 491.99 97.276 490.533C98.0202 489.324 98.5502 487.991 99.3485 486.813C100.123 485.671 101.214 484.904 102.155 483.921C103.487 482.53 104.221 480.722 105.169 479.073C106.375 476.974 107.609 474.937 109.015 472.965C112.18 468.53 113.848 462.975 116.412 458.189" stroke="white" stroke-width="4" stroke-linecap="round" stroke-linejoin="round"/>
<path d="M112.952 465.747C113.975 462.84 115.916 460.749 117.36 458.095C119.343 454.453 121.587 450.951 123.723 447.395C126.353 443.015 129.306 438.871 131.834 434.422C135.271 428.374 138.017 422.083 141.921 416.3" stroke="white" stroke-width="4" stroke-linecap="round" stroke-linejoin="round"/>
<path d="M55.3045 491.815C54.931 493.034 56.8643 492.917 57.932 493.484C60.8698 495.045 63.6534 496.88 66.7149 498.208C69.3238 499.341 71.789 500.742 74.3529 501.965C74.9867 502.268 75.6972 502.406 76.3114 502.727C77.1277 503.152 77.7383 503.841 78.5796 504.234C79.7617 504.785 80.9433 505.346 81.9224 506.225C82.0562 506.345 82.8139 506.793 82.8367 507.032C82.8985 507.682 78.8209 506.364 78.4865 506.205" stroke="white" stroke-width="4" stroke-linecap="round" stroke-linejoin="round"/>
<path d="M83.9074 497.126C83.5981 496.455 83.2386 495.726 83.695 495.029C83.9442 494.648 84.2809 494.635 84.4552 495.066C84.9508 496.291 84.3718 495.559 84.8455 494.91C85.5238 493.98 85.6845 493.172 86.1968 492.133C86.3811 491.759 86.4608 492.016 86.5211 492.267C86.9667 494.122 86.3861 497.022 85.55 498.687C85.1248 499.533 84.3722 500.88 83.7802 501.593C83.3054 502.166 83.2556 502.93 82.7848 503.5C82.0514 504.388 80.2475 504.924 79.2111 505.508C78.7731 505.755 78.3619 505.439 77.9526 505.397C77.5344 505.355 77.2158 505.952 76.7038 505.608C75.9429 505.097 75.0455 505.436 74.4704 504.801C73.7434 503.998 72.4218 504.431 71.5335 504.303C70.1297 504.1 69.1464 504.455 68.0075 503.401" stroke="white" stroke-width="4" stroke-linecap="round" stroke-linejoin="round"/>
<path d="M68.1076 498.333C68.1228 498.917 70.2959 499.368 70.5788 498.895" stroke="white" stroke-width="4" stroke-linecap="round" stroke-linejoin="round"/>
<path d="M82.0305 500.628C81.1723 496.818 81.7694 492.736 82.1452 488.9C82.9931 480.247 84.0419 471.629 84.7313 462.959C85.467 453.706 86.4469 444.444 86.5687 435.156C86.622 431.084 86.4536 427.02 86.2555 422.954C86.0899 419.555 86.0539 416.039 85.2149 412.72C84.4723 409.783 82.1232 405.079 79.0353 403.944C75.1154 402.503 70.9352 406.101 68.5347 408.748C64.4068 413.3 59.4533 420.105 59.7015 426.601C59.8927 431.606 63.6494 434.994 68.6447 434.403C75.1538 433.632 77.7558 424.968 78.1323 419.574C78.2186 418.338 78.5349 415.125 76.456 415.284C74.031 415.47 72.1363 419.913 71.2527 421.719C70.2429 423.784 69.3102 426.093 69.4426 428.438C69.5248 429.893 70.2714 429.943 71.3858 430.497" stroke="white" stroke-width="4" stroke-linecap="round" stroke-linejoin="round"/>
<path d="M68.9459 468.939C68.5193 467.912 68.6013 466.833 68.7165 465.743C69.0621 462.476 69.5591 459.212 69.9538 455.948C70.4259 452.045 71.0763 448.143 72.3704 444.419C73.2263 441.955 74.4608 438.892 76.7264 437.369C81.2157 434.35 80.2223 442.601 79.8437 444.622C78.2389 453.187 74.5775 461.14 73.5671 469.861C73.1286 473.645 72.3689 477.437 74.7099 480.632C76.1347 482.576 76.0842 485.255 77.5307 487.12C79.6604 489.866 79.751 481.537 79.7975 480.958C80.6016 470.938 82.3721 460.981 83.7016 451.021C84.2198 447.139 84.5873 443.201 85.3529 439.357C85.6362 437.935 85.9986 436.332 86.7077 435.044C86.7377 434.989 86.075 435.168 85.8407 435.274C85.101 435.609 84.0588 436.059 83.5789 436.734C82.7655 437.877 82.4634 439.483 82.1324 440.813C81.2049 444.537 81.0009 448.386 80.381 452.165C80.3471 452.372 80.183 454.366 79.81 454.483C79.6419 454.536 79.6952 454.146 79.6855 453.97C79.6592 453.491 79.6743 452.527 79.6855 452.107C79.8656 445.369 80.6206 438.553 81.8943 431.937C82.4331 429.139 83.1071 426.362 84.0664 423.676C84.3705 422.824 84.9417 420.494 85.9632 420.061C86.5053 419.832 85.5164 425.825 85.4525 426.18C84.7213 430.249 84.2233 434.3 83.8634 438.421C83.6199 441.208 83.4302 444.002 83.1361 446.785C83.0331 447.76 82.9093 450.437 82.3607 449.623C81.7383 448.701 81.8368 446.922 81.7747 445.897C81.5749 442.596 81.5605 439.26 81.8366 435.963C81.998 434.037 81.9548 429.321 84.6174 428.931" stroke="white" stroke-width="4" stroke-linecap="round" stroke-linejoin="round"/>
<path d="M84.8646 502.838C84.1578 502.029 84.9662 504.225 84.989 504.847C85.0156 505.575 84.8649 506.329 85.0867 507.031C85.3098 507.738 85.1135 508.582 85.8951 508.582C86.2815 508.582 86.5646 508.06 86.9444 508.087C87.0318 508.093 87.0073 508.457 87.0073 508.526C87.0073 508.992 87.127 507.6 87.203 507.14C87.337 506.328 87.2442 505.349 87.4859 504.571" stroke="white" stroke-width="4" stroke-linecap="round" stroke-linejoin="round"/>
<path d="M52.1545 464.996C50.4303 463.808 48.339 463.063 46.7161 461.779C45.2817 460.645 44.1149 459.535 42.2226 459.257C40.0662 458.941 37.8808 459.165 35.7201 458.775C33.6392 458.399 31.6342 457.738 29.5324 457.462C26.9101 457.118 25.2717 455.976 22.9813 454.839C22.0104 454.357 22.6195 454.03 23.4758 453.506C25.0031 452.571 25.2952 456.681 24.8393 457.458C24.4968 458.042 24.0161 456.263 23.9993 456.167C23.8251 455.175 23.6711 453.599 24.2975 452.721C24.7953 452.023 24.8443 454.124 24.8419 454.275C24.832 454.905 24.7932 455.818 24.3006 456.297C24.0079 456.581 24.4556 455.439 24.4556 455.898C24.4556 456.323 24.6826 454.139 24.8685 453.654C25.8387 451.125 25.4234 454.596 24.7441 455.365C24.2547 455.919 24.3185 453.561 24.3222 453.439C24.3585 452.217 24.4301 450.197 25.3819 449.265C26.0504 448.611 26.0878 452.343 26.0817 452.606C26.0756 452.869 25.6936 455.7 25.767 454.224C25.8805 451.942 26.3574 449.587 27.0757 447.421C27.8312 445.143 28.647 445.412 28.8561 447.678C28.9875 449.102 28.5815 451.048 29.0283 452.405C29.345 453.367 29.6685 450.483 29.9436 449.508C30.4397 447.75 30.9434 444.606 32.5828 443.496C33.8257 442.654 33.7247 446.118 33.7299 446.605C33.7432 447.847 33.516 448.632 33.9185 446.898C34.2804 445.339 34.7145 443.79 35.2424 442.279C35.5395 441.428 36.0593 439.27 37.0723 438.888C38.2739 438.436 37.8913 444.142 37.8506 444.701C37.6717 447.158 37.63 446.135 38.0228 444.346C38.5092 442.131 41.7343 427.95 45.6617 433.142C46.6655 434.469 47.255 434.918 48.3164 433.239C51.0241 428.955 52.9838 424.12 55.2834 419.612C56.4208 417.382 57.5491 415.136 58.7957 412.965C59.3532 411.994 60.8589 408.691 62.3794 408.681C64.807 408.664 62.5401 422.169 62.3991 423.391C62.043 426.477 61.6728 429.565 61.4195 432.662C61.2941 434.195 60.4098 438.234 61.6099 437.272C62.4477 436.601 62.9484 434.486 63.2381 433.622C64.4956 429.87 65.4655 426.019 66.5255 422.209C67.4119 419.022 68.2899 415.831 69.2538 412.667C69.8108 410.839 70.414 407.111 72.0243 405.758C72.6804 405.207 72.7895 407.362 72.7684 408.219C72.6548 412.83 71.6448 417.439 70.8307 421.961C70.0861 426.097 69.3315 430.23 68.6053 434.369C68.1993 436.683 68.0865 439.54 67.238 441.771C66.9215 442.603 67.4176 439.999 67.552 439.119C68.1646 435.106 68.8273 431.096 69.6497 427.121C70.4297 423.351 71.3526 419.612 72.4243 415.914C73.4287 412.448 74.3759 408.495 76.2961 405.384C76.9528 404.32 77.6711 404.085 77.8586 405.537C78.3573 409.399 77.2925 413.715 76.6715 417.496C75.5366 424.406 74.771 431.629 73.0329 438.419C71.9005 442.842 74.3854 429.375 75.4724 424.941C76.4754 420.849 77.6729 416.807 79.0019 412.81C80.1072 409.485 81.1453 405.012 83.4548 402.234C84.8626 400.542 84.8351 404.046 84.8352 404.286C84.8364 409.747 83.502 415.273 82.5322 420.614C81.3245 427.266 78.6684 447.361 79.2306 440.624C79.903 432.567 81.7418 424.503 84.0052 416.763C85.1745 412.764 86.479 408.786 87.9752 404.897C88.4435 403.679 89.5596 400.935 90.275 399.682C90.582 399.144 91.3535 398.005 91.7143 398.508C92.7754 399.988 91.6626 404.576 91.4663 405.874C90.4379 412.669 88.8714 419.381 87.5397 426.119C86.7051 430.343 85.9996 434.591 85.1701 438.815C84.3411 443.036 84.4203 438.552 84.4583 437.316C84.7791 426.871 86.7411 416.6 89.8223 406.631C90.7381 403.668 91.6482 400.386 93.2317 397.679C95.2579 394.215 95.0055 399.976 94.9327 400.733C94.4841 405.405 93.3805 410.045 92.4231 414.627C91.0004 421.437 89.6846 428.305 87.9271 435.039C87.5956 436.309 86.5368 439.815 86.1589 438.558C85.8631 437.574 85.8797 434.278 85.8947 433.673C85.9625 430.947 86.272 427.091 86.6062 424.446C87.2828 419.092 88.3566 413.805 89.8762 408.625C91.0083 404.767 92.3043 399.25 95.1341 396.153C96.7611 394.373 96.4408 398.413 96.423 398.69C96.0283 404.872 94.3132 411.108 92.7525 417.069C91.4254 422.137 90.2132 427.792 87.6878 432.449C86.4936 434.651 86.8908 431.503 86.8759 431.028" stroke="white" stroke-width="4" stroke-linecap="round" stroke-linejoin="round"/>
<path d="M66.3277 466.166C67.1016 460.745 68.7345 455.431 70.1214 450.143C73.8011 436.114 78.2829 421.823 86.2291 409.552C88.4135 406.179 91.6451 401.15 95.8277 399.914C99.1005 398.946 100.146 402.667 100.45 405.066C101.134 410.453 100.259 416.195 99.1643 421.461C97.9429 427.337 96.1806 433.321 93.3774 438.656C91.9236 441.422 89.4479 445.633 85.8433 445.906C82.3083 446.173 80.3382 442.084 79.4527 439.356C75.8035 428.114 78.8118 414.746 84.2327 404.597C86.2289 400.86 89.0833 396.333 93.0813 394.423C96.1596 392.952 98.0752 395.065 98.5557 398.027C99.4657 403.638 97.8198 409.894 96.4071 415.261C94.3674 423.009 91.6986 430.724 88.2613 437.968C86.836 440.971 76.4123 460.146 71.6423 450.344C69.5179 445.978 70.0105 440.028 70.4703 435.391C71.1177 428.861 72.6033 422.316 74.7763 416.127C76.2001 412.072 78.0295 407.115 81.4394 404.235C83.3416 402.629 85.5138 402.842 86.3452 405.366C87.785 409.737 86.8271 415.285 86.1912 419.682C85.1434 426.926 83.4215 434.14 81.1582 441.1C79.5046 446.185 77.5506 451.728 73.9282 455.801C72.1985 457.746 68.9081 460.261 66.1699 458.527C62.5422 456.229 62.1347 449.87 61.9238 446.184C61.4948 438.688 62.5152 431.061 64.4944 423.835C66.0416 418.186 68.1928 412.133 71.7664 407.406C72.9088 405.895 76.042 402.447 78.2953 404.427C80.7953 406.623 79.9762 412.195 79.663 414.938C78.6817 423.53 75.9104 432.034 72.6155 439.99C70.4752 445.159 67.9948 450.761 63.9238 454.742C61.8388 456.781 58.5397 458.722 56.1263 455.982C53.2451 452.712 53.236 447.004 53.3571 442.962C53.551 436.493 55.0256 430.112 57.3695 424.093C59.4561 418.735 62.2665 413.516 66.1885 409.267C68.0896 407.208 71.4571 403.849 74.6704 404.549C77.9132 405.255 77.8975 410.176 77.8598 412.614C77.7619 418.949 76.2148 425.315 74.457 431.365C72.725 437.326 70.575 443.266 67.3134 448.579C65.8421 450.976 63.2765 455.221 60.0795 455.633C56.9427 456.036 56.6803 450.946 56.5799 449.044C56.2695 443.166 57.4119 437.202 59.1032 431.599C60.8979 425.653 63.4046 419.668 67.2105 414.708C68.8868 412.523 72.353 408.414 75.6709 409.872C79.064 411.364 79.2295 417.076 79.3561 420.067C79.6221 426.349 78.8152 432.736 77.3317 438.834C75.8388 444.971 70.879 459.208 61.734 454.243C57.6301 452.015 55.8377 446.963 54.905 442.695C53.5524 436.506 53.8058 430.058 54.9693 423.863C55.9666 418.552 57.5931 413.024 60.6243 408.485C61.4521 407.245 64.3265 403.591 65.3805 406.842C66.7307 411.006 65.1633 416.676 64.3254 420.752C62.8805 427.781 60.9148 434.772 58.2177 441.428C56.5033 445.659 54.3553 450.879 50.4586 453.626C47.916 455.418 45.6929 454.404 44.7784 451.55C43.4448 447.386 44.2261 442.481 45.2275 438.347C46.2065 434.305 47.6863 429.694 50.7238 426.68C52.1575 425.257 54.2821 424.527 55.2485 426.82C56.3921 429.533 55.7354 433.047 54.9672 435.753C54.0085 439.13 52.3489 442.438 49.9282 445.009C49.1251 445.863 48.2084 446.747 47.0315 447.068C45.3278 447.534 45.263 446.228 44.1811 445.469" stroke="white" stroke-width="16" stroke-linecap="round" stroke-linejoin="round"/>
</svg>
